<svg width="26" height="25" viewBox="0 0 26 25" fill="none" xmlns="http://www.w3.org/2000/svg">
<path fill-rule="evenodd" clip-rule="evenodd" d="M9.15416 14.1463C9.11857 14.0695 9.05526 14.0089 8.97691 13.9768C8.89856 13.9446 8.81097 13.9433 8.73166 13.973C7.995 14.0488 8.2875 17.1038 9.0025 16.9413C9.7175 16.7788 9.425 14.7638 9.15416 14.1463Z" fill="black"/>
<path fill-rule="evenodd" clip-rule="evenodd" d="M16.12 16.7249C16.25 16.7249 16.3475 16.6491 16.4775 16.5408C17.03 16.0424 16.9975 13.8216 16.3908 13.7566C16.3525 13.7387 16.311 13.7287 16.2688 13.7272C16.2265 13.7258 16.1844 13.7328 16.145 13.748C16.1055 13.7632 16.0696 13.7861 16.0392 13.8155C16.0088 13.8449 15.9847 13.8802 15.9683 13.9191C15.6871 14.6993 15.6125 15.539 15.7516 16.3566C15.7516 16.4543 15.7904 16.548 15.8595 16.6171C15.9286 16.6861 16.0223 16.7249 16.12 16.7249Z" fill="black"/>
<path fill-rule="evenodd" clip-rule="evenodd" d="M9.38165 19.7041C9.90125 20.2592 10.5181 20.7145 11.2017 21.0475C12.0127 21.3429 12.8936 21.3894 13.7313 21.181C14.569 20.9725 15.3253 20.5186 15.9033 19.8775C16.1742 19.6175 16.9867 19.0541 16.9867 18.5883C16.9867 18.4906 16.9478 18.3969 16.8788 18.3279C16.8097 18.2588 16.716 18.22 16.6183 18.22C15.6789 18.9911 14.612 19.5924 13.4658 19.9966C10.6708 20.6683 9.43582 18.2525 9.22999 18.1983C9.17818 18.1708 9.12022 18.1568 9.06155 18.1578C9.00288 18.1587 8.94542 18.1746 8.89454 18.2038C8.84366 18.233 8.80103 18.2747 8.77064 18.3249C8.74026 18.3751 8.72312 18.4322 8.72082 18.4908C8.66665 18.7833 9.22998 19.5525 9.38165 19.7041Z" fill="black"/>
<path fill-rule="evenodd" clip-rule="evenodd" d="M23.0316 12.9441C22.9167 14.8703 22.6851 16.7877 22.3383 18.6858C22.1631 19.762 21.8385 20.8085 21.3741 21.795C21.2416 22.1405 20.9873 22.4256 20.6591 22.5966C18.7625 23.17 16.7904 23.4549 14.8091 23.4416C11.788 23.552 8.76283 23.4179 5.76328 23.0408C4.35494 22.8566 3.59661 21.2533 3.16328 19.3791C2.69249 17.2657 2.44199 15.1092 2.41578 12.9441C2.33994 12.1966 1.70078 12.2941 1.76578 12.9441C1.67863 15.6314 1.9815 18.3171 2.66494 20.9175C3.22828 22.6291 4.19244 23.8641 5.60078 24.1025C8.6643 24.537 11.7602 24.7001 14.8524 24.59C16.9553 24.5701 19.0422 24.2228 21.0383 23.5608C21.8833 23.2033 22.5658 21.86 22.9774 20.0616C23.4338 17.7148 23.6947 15.3341 23.7574 12.9441C23.6058 12.37 23.1724 12.565 23.0316 12.9441Z" fill="black"/>
<path fill-rule="evenodd" clip-rule="evenodd" d="M4.61498 6.77976C4.73608 6.45711 4.87719 6.14234 5.03748 5.83726C5.20641 5.55038 5.39462 5.27531 5.60082 5.01393C5.81026 4.75558 6.03452 4.50961 6.27248 4.27726C6.72675 3.83879 7.23236 3.45685 7.77832 3.13976C7.83286 3.37435 7.95311 3.58854 8.12498 3.75726C8.36226 3.99397 8.64639 4.17847 8.95915 4.29893C9.39842 4.45107 9.85931 4.53155 10.3241 4.53726L14.885 4.62393C15.3866 4.65109 15.8892 4.65109 16.3908 4.62393C16.7896 4.60641 17.1806 4.50684 17.5392 4.33143C17.77 4.24066 17.9748 4.09428 18.1355 3.90528C18.2961 3.71629 18.4076 3.49054 18.46 3.24809C18.46 3.24809 18.46 3.18309 18.46 3.16143C19.1395 3.33209 19.77 3.65847 20.3016 4.11476C20.5751 4.36295 20.8219 4.63887 21.0383 4.93809C21.2557 5.24312 21.4409 5.56986 21.5908 5.91309C21.6989 6.19611 21.7894 6.48555 21.8616 6.77976C22.1541 7.99309 22.7175 7.86309 22.8366 6.77976C22.8075 6.35642 22.7275 5.93813 22.5983 5.53393C22.4546 5.08391 22.2466 4.657 21.9808 4.26643C21.7016 3.87532 21.3614 3.53151 20.9733 3.24809C20.1933 2.73725 19.2839 2.45917 18.3517 2.44643C18.2093 2.08971 17.9912 1.76815 17.7125 1.50393C17.2875 1.13576 16.7889 0.862463 16.25 0.702259C15.4783 0.504177 14.685 0.402293 13.8883 0.398926H12.22C11.635 0.398926 11.1366 0.398926 10.5625 0.463926C10.483 0.469422 10.4085 0.504933 10.3542 0.563266C10.2999 0.621598 10.2698 0.698392 10.27 0.778092C10.2755 0.857604 10.311 0.932054 10.3693 0.986363C10.4277 1.04067 10.5044 1.07078 10.5841 1.07059H12.2092C12.7508 1.07059 13.2925 1.13559 13.8342 1.18976C14.5402 1.26657 15.2348 1.42657 15.9033 1.66643C16.307 1.80253 16.6766 2.02426 16.9866 2.31643C17.1912 2.48622 17.3261 2.72527 17.3658 2.98809C17.3658 3.13976 17.2683 3.24809 17.0625 3.34559C16.8294 3.44747 16.5798 3.5062 16.3258 3.51893C15.8568 3.54614 15.3865 3.54614 14.9175 3.51893L10.3566 3.64893C10.0509 3.65828 9.74515 3.62916 9.44665 3.56226C9.15285 3.50837 8.88151 3.36893 8.66665 3.16143C8.57264 3.05061 8.51245 2.91512 8.49325 2.77107C8.47404 2.62703 8.49663 2.4805 8.55832 2.34893C8.66603 2.00134 8.88729 1.69997 9.18665 1.49309C9.25059 1.44161 9.29419 1.3691 9.30968 1.28849C9.32517 1.20787 9.31155 1.12437 9.27124 1.05285C9.23093 0.981337 9.16655 0.926447 9.08956 0.897954C9.01257 0.869461 8.92797 0.869215 8.85082 0.897259C8.30925 1.23598 7.92072 1.77214 7.76748 2.39226C6.98753 2.62406 6.25422 2.99071 5.60082 3.47559C5.27222 3.72136 4.97722 4.00908 4.72332 4.33143C4.47255 4.665 4.26506 5.02902 4.10582 5.41476C3.91199 5.85163 3.77018 6.30978 3.68332 6.77976C3.62915 7.88476 4.33332 7.65726 4.61498 6.77976Z" fill="black"/>
<path fill-rule="evenodd" clip-rule="evenodd" d="M26 10.0406C25.9472 9.70622 25.8231 9.3871 25.6362 9.10486C25.4493 8.82262 25.2039 8.58386 24.9166 8.40477C23.6659 8.21317 22.4007 8.13341 21.1358 8.16643C18.0916 8.16643 14.0616 8.27477 12.6208 8.3181C2.92498 8.65393 8.86164 7.93893 0.552476 8.50227C0.472027 8.50227 0.394873 8.53422 0.337987 8.59111C0.281101 8.648 0.249143 8.72515 0.249143 8.8056C0.249143 8.88605 0.281101 8.9632 0.337987 9.02009C0.394873 9.07697 0.472027 9.10893 0.552476 9.10893H4.14914C7.04164 9.10893 10.075 9.24977 12.6425 9.24977H21.1141C22.2438 9.22713 23.3736 9.28869 24.4941 9.43393C24.6161 9.58657 24.7113 9.75872 24.7758 9.9431C24.8161 10.107 24.845 10.2735 24.8625 10.4414C24.537 10.5595 24.1989 10.6395 23.855 10.6798C23.2158 10.7556 22.5116 10.7448 21.9916 10.7556L2.93581 11.1673C2.39197 11.2725 1.83299 11.2725 1.28914 11.1673C1.15018 11.0972 1.02793 10.9981 0.930725 10.8766C0.833516 10.7551 0.763625 10.614 0.725809 10.4631C0.710086 10.3954 0.710086 10.325 0.725809 10.2573V9.7156C0.731881 9.67144 0.729102 9.62652 0.717634 9.58345C0.706166 9.54037 0.686239 9.50001 0.659013 9.46472C0.631788 9.42943 0.59781 9.39991 0.559059 9.37789C0.520309 9.35586 0.477562 9.34177 0.433309 9.33643C0.343701 9.33306 0.256098 9.36349 0.187872 9.42168C0.119647 9.47987 0.0757819 9.56158 0.0649759 9.6506C0.0649759 9.86727 -2.40691e-05 10.0948 -2.40691e-05 10.3114C-0.00117619 10.4452 0.0246139 10.5778 0.0758093 10.7014C0.143985 10.9368 0.261308 11.1551 0.420036 11.3419C0.578764 11.5286 0.77529 11.6796 0.996643 11.7848C1.31081 11.9256 23.3891 11.8823 23.985 11.7848C24.4835 11.7425 24.971 11.6142 25.4258 11.4056C25.648 11.2625 25.8216 11.0555 25.9241 10.8119C26.0266 10.5684 26.053 10.2995 26 10.0406Z" fill="black"/>
</svg>
