<svg width="47" height="50" viewBox="0 0 47 50" fill="none" xmlns="http://www.w3.org/2000/svg">
<path d="M23.0358 33.929C31.9118 33.929 39.1072 26.7336 39.1072 17.8576C39.1072 8.98156 31.9118 1.78613 23.0358 1.78613C14.1598 1.78613 6.96436 8.98156 6.96436 17.8576C6.96436 26.7336 14.1598 33.929 23.0358 33.929Z" stroke="#000001" stroke-width="2" stroke-linecap="round" stroke-linejoin="round"/>
<path d="M23.0359 25.0006C26.9808 25.0006 30.1788 21.8026 30.1788 17.8577C30.1788 13.9128 26.9808 10.7148 23.0359 10.7148C19.091 10.7148 15.8931 13.9128 15.8931 17.8577C15.8931 21.8026 19.091 25.0006 23.0359 25.0006Z" stroke="#000001" stroke-width="2" stroke-linecap="round" stroke-linejoin="round"/>
<path d="M19.9286 33.6437L16.7858 46.858C16.7236 47.1091 16.6086 47.3441 16.4485 47.5473C16.2884 47.7505 16.0868 47.9173 15.8572 48.0366C15.6149 48.1417 15.3535 48.196 15.0893 48.196C14.8252 48.196 14.5638 48.1417 14.3215 48.0366L2.46433 42.858C2.21562 42.7404 1.99677 42.568 1.82422 42.3537C1.65167 42.1395 1.52989 41.8889 1.46803 41.6209C1.40617 41.3528 1.40584 41.0742 1.46705 40.806C1.52826 40.5378 1.64944 40.2869 1.82147 40.0723L11 28.5723" stroke="#000001" stroke-width="2" stroke-linecap="round" stroke-linejoin="round"/>
<path d="M27.0713 33.465L30.2856 46.8578C30.3495 47.1132 30.4691 47.3513 30.6358 47.5551C30.8025 47.7588 31.0122 47.9232 31.2499 48.0364C31.4856 48.1429 31.7412 48.198 31.9999 48.198C32.2585 48.198 32.5142 48.1429 32.7499 48.0364L44.5356 42.8578C44.788 42.7417 45.0099 42.5682 45.1835 42.3512C45.3571 42.1342 45.4777 41.8796 45.5356 41.6078C45.6033 41.342 45.6062 41.0637 45.544 40.7965C45.4819 40.5293 45.3565 40.2808 45.1784 40.0721L35.607 27.8936" stroke="#000001" stroke-width="2" stroke-linecap="round" stroke-linejoin="round"/>
</svg>
