<svg width="25" height="17" viewBox="0 0 25 17" fill="none" xmlns="http://www.w3.org/2000/svg">
<path fill-rule="evenodd" clip-rule="evenodd" d="M24.5391 8.03214C21.5011 7.49845 18.4323 7.15826 15.3511 7.01361C13.2292 6.90752 11.1072 7.01361 9.28237 7.01361C3.42582 7.01361 3.78655 7.438 4.50801 6.82264C12.4016 0.22341 11.7863 1.24194 11.8924 0.817553C11.9985 0.393165 11.765 -0.243417 10.895 0.0960931C7.8822 1.7661 4.96365 3.60082 2.15265 5.59192C0.0307143 7.14093 -0.88172 8.07458 1.09168 9.68726C2.57704 10.8968 11.2133 16.4987 12.4016 16.4775C12.593 16.4775 12.7765 16.4015 12.9118 16.2661C13.0471 16.1308 13.1231 15.9473 13.1231 15.756C13.1231 15.5647 13.0471 15.3812 12.9118 15.2459C12.7765 15.1106 12.593 15.0345 12.4016 15.0345C10.5768 13.8038 7.37262 11.6819 3.65923 8.66873C8.7731 9.0719 9.66432 9.28409 14.6084 9.41141C18.2157 9.5175 23.6691 9.17799 24.1784 9.26287C24.3416 9.31071 24.5171 9.29175 24.6663 9.21017C24.8156 9.12859 24.9263 8.99108 24.9741 8.82787C25.0219 8.66467 25.003 8.48915 24.9214 8.33992C24.8398 8.19069 24.7023 8.07998 24.5391 8.03214Z" fill="black"/>
</svg>
